/videos/2e416665-ec5a-b889-85b6-3636be4c1bfc/hls1/main/0.ts

{"Protocol":0,"Id":"2e416665ec5ab88985b63636be4c1bfc","Path":"/data/tvshows/Jujutsu Kaisen/Season 2/Jujutsu Kaisen - S02E01 - Hidden Inventory WEBRip-1080p.mp4","EncoderPath":null,"EncoderProtocol":null,"Type":0,"Container":"mov,mp4,m4a,3gp,3g2,mj2","Size":340753263,"Name":"Jujutsu Kaisen - S02E01 - Hidden Inventory WEBRip-1080p","IsRemote":false,"ETag":"2046356a0fe94d803ac5197914b5edcb","RunTimeTicks":14350870000,"ReadAtNativeFramerate":false,"IgnoreDts":false,"IgnoreIndex":false,"GenPtsInput":false,"SupportsTranscoding":true,"SupportsDirectStream":true,"SupportsDirectPlay":true,"IsInfiniteStream":false,"RequiresOpening":false,"OpenToken":null,"RequiresClosing":false,"LiveStreamId":null,"BufferMs":null,"RequiresLooping":false,"SupportsProbing":true,"VideoType":0,"IsoType":null,"Video3DFormat":null,"MediaStreams":[{"Codec":"subrip","CodecTag":null,"Language":"eng","ColorRange":null,"ColorSpace":null,"ColorTransfer":null,"ColorPrimaries":null,"DvVersionMajor":null,"DvVersionMinor":null,"DvProfile":null,"DvLevel":null,"RpuPresentFlag":null,"ElPresentFlag":null,"BlPresentFlag":null,"DvBlSignalCompatibilityId":null,"Comment":null,"TimeBase":"1/1000","CodecTimeBase":null,"Title":null,"VideoRange":null,"VideoRangeType":null,"VideoDoViTitle":null,"LocalizedUndefined":"Undefined","LocalizedDefault":"Default","LocalizedForced":"Forced","LocalizedExternal":"External","DisplayTitle":"English - SUBRIP - External","NalLengthSize":null,"IsInterlaced":false,"IsAVC":null,"ChannelLayout":null,"BitRate":null,"BitDepth":null,"RefFrames":null,"PacketLength":null,"Channels":null,"SampleRate":null,"IsDefault":false,"IsForced":false,"Height":null,"Width":null,"AverageFrameRate":null,"RealFrameRate":null,"Profile":null,"Type":2,"AspectRatio":null,"Index":0,"Score":null,"IsExternal":true,"DeliveryMethod":null,"DeliveryUrl":null,"IsExternalUrl":null,"IsTextSubtitleStream":true,"SupportsExternalStream":true,"Path":"/data/tvshows/Jujutsu Kaisen/Season 2/Jujutsu Kaisen - S02E01 - Hidden Inventory WEBRip-1080p.en.srt","PixelFormat":null,"Level":0,"IsAnamorphic":null},{"Codec":"h264","CodecTag":"avc1","Language":"und","ColorRange":null,"ColorSpace":"bt709","ColorTransfer":"bt709","ColorPrimaries":"bt709","DvVersionMajor":null,"DvVersionMinor":null,"DvProfile":null,"DvLevel":null,"RpuPresentFlag":null,"ElPresentFlag":null,"BlPresentFlag":null,"DvBlSignalCompatibilityId":null,"Comment":null,"TimeBase":"1/24000","CodecTimeBase":null,"Title":null,"VideoRange":"SDR","VideoRangeType":"SDR","VideoDoViTitle":null,"LocalizedUndefined":null,"LocalizedDefault":null,"LocalizedForced":null,"LocalizedExternal":null,"DisplayTitle":"1080p H264 SDR","NalLengthSize":"4","IsInterlaced":false,"IsAVC":true,"ChannelLayout":null,"BitRate":1760777,"BitDepth":10,"RefFrames":1,"PacketLength":null,"Channels":null,"SampleRate":null,"IsDefault":true,"IsForced":false,"Height":1080,"Width":1920,"AverageFrameRate":23.976025,"RealFrameRate":23.976025,"Profile":"High 10","Type":1,"AspectRatio":"16:9","Index":1,"Score":null,"IsExternal":false,"DeliveryMethod":null,"DeliveryUrl":null,"IsExternalUrl":null,"IsTextSubtitleStream":false,"SupportsExternalStream":false,"Path":null,"PixelFormat":"yuv420p10le","Level":40,"IsAnamorphic":null},{"Codec":"mov_text","CodecTag":"tx3g","Language":"eng","ColorRange":null,"ColorSpace":null,"ColorTransfer":null,"ColorPrimaries":null,"DvVersionMajor":null,"DvVersionMinor":null,"DvProfile":null,"DvLevel":null,"RpuPresentFlag":null,"ElPresentFlag":null,"BlPresentFlag":null,"DvBlSignalCompatibilityId":null,"Comment":null,"TimeBase":"1/1000000","CodecTimeBase":null,"Title":null,"VideoRange":null,"VideoRangeType":null,"VideoDoViTitle":null,"LocalizedUndefined":"Undefined","LocalizedDefault":"Default","LocalizedForced":"Forced","LocalizedExternal":"External","DisplayTitle":"English - Default - MOV_TEXT","NalLengthSize":null,"IsInterlaced":false,"IsAVC":null,"ChannelLayout":null,"BitRate":125,"BitDepth":null,"RefFrames":null,"PacketLength":null,"Channels":null,"SampleRate":null,"IsDefault":true,"IsForced":false,"Height":null,"Width":null,"AverageFrameRate":null,"RealFrameRate":null,"Profile":null,"Type":2,"AspectRatio":null,"Index":2,"Score":null,"IsExternal":false,"DeliveryMethod":null,"DeliveryUrl":null,"IsExternalUrl":null,"IsTextSubtitleStream":true,"SupportsExternalStream":true,"Path":null,"PixelFormat":null,"Level":0,"IsAnamorphic":null},{"Codec":"aac","CodecTag":"mp4a","Language":"jpn","ColorRange":null,"ColorSpace":null,"ColorTransfer":null,"ColorPrimaries":null,"DvVersionMajor":null,"DvVersionMinor":null,"DvProfile":null,"DvLevel":null,"RpuPresentFlag":null,"ElPresentFlag":null,"BlPresentFlag":null,"DvBlSignalCompatibilityId":null,"Comment":null,"TimeBase":"1/44100","CodecTimeBase":null,"Title":null,"VideoRange":null,"VideoRangeType":null,"VideoDoViTitle":null,"LocalizedUndefined":null,"LocalizedDefault":null,"LocalizedForced":null,"LocalizedExternal":null,"DisplayTitle":"Japanese - AAC - Stereo - Default","NalLengthSize":null,"IsInterlaced":false,"IsAVC":null,"ChannelLayout":"stereo","BitRate":130594,"BitDepth":null,"RefFrames":null,"PacketLength":null,"Channels":2,"SampleRate":44100,"IsDefault":true,"IsForced":false,"Height":null,"Width":null,"AverageFrameRate":null,"RealFrameRate":null,"Profile":"LC","Type":0,"AspectRatio":null,"Index":3,"Score":null,"IsExternal":false,"DeliveryMethod":null,"DeliveryUrl":null,"IsExternalUrl":null,"IsTextSubtitleStream":false,"SupportsExternalStream":false,"Path":null,"PixelFormat":null,"Level":0,"IsAnamorphic":null},{"Codec":"bin_data","CodecTag":"text","Language":"eng","ColorRange":null,"ColorSpace":null,"ColorTransfer":null,"ColorPrimaries":null,"DvVersionMajor":null,"DvVersionMinor":null,"DvProfile":null,"DvLevel":null,"RpuPresentFlag":null,"ElPresentFlag":null,"BlPresentFlag":null,"DvBlSignalCompatibilityId":null,"Comment":null,"TimeBase":"1/1000","CodecTimeBase":null,"Title":null,"VideoRange":null,"VideoRangeType":null,"VideoDoViTitle":null,"LocalizedUndefined":null,"LocalizedDefault":null,"LocalizedForced":null,"LocalizedExternal":null,"DisplayTitle":null,"NalLengthSize":null,"IsInterlaced":false,"IsAVC":null,"ChannelLayout":null,"BitRate":null,"BitDepth":null,"RefFrames":null,"PacketLength":null,"Channels":null,"SampleRate":null,"IsDefault":false,"IsForced":false,"Height":null,"Width":null,"AverageFrameRate":null,"RealFrameRate":null,"Profile":null,"Type":4,"AspectRatio":null,"Index":4,"Score":null,"IsExternal":false,"DeliveryMethod":null,"DeliveryUrl":null,"IsExternalUrl":null,"IsTextSubtitleStream":false,"SupportsExternalStream":false,"Path":null,"PixelFormat":null,"Level":0,"IsAnamorphic":null}],"MediaAttachments":[],"Formats":[],"Bitrate":1899554,"Timestamp":null,"RequiredHttpHeaders":{},"TranscodingUrl":null,"TranscodingSubProtocol":null,"TranscodingContainer":null,"AnalyzeDurationMs":null,"DefaultAudioStreamIndex":null,"DefaultSubtitleStreamIndex":null}

/usr/lib/jellyfin-ffmpeg/ffmpeg -analyzeduration 200M -f mov,mp4,m4a,3gp,3g2,mj2 -autorotate 0 -i file:"/data/tvshows/Jujutsu Kaisen/Season 2/Jujutsu Kaisen - S02E01 - Hidden Inventory WEBRip-1080p.mp4" -map_metadata -1 -map_chapters -1 -threads 0 -map 0:0 -map 0:2 -map -0:s -codec:v:0 libx264 -preset veryfast -crf 23 -maxrate 4401942 -bufsize 8803884 -profile:v:0 high -level 40 -x264opts:0 subme=0:me_range=4:rc_lookahead=10:me=dia:no_chroma_me:8x8dct=0:partitions=none -force_key_frames:0 "expr:gte(t,0+n_forced*3)" -sc_threshold:v:0 0 -vf "setparams=color_primaries=bt709:color_trc=bt709:colorspace=bt709,scale=trunc(min(max(iw\,ih*a)\,min(1920\,1080*a))/2)*2:trunc(min(max(iw/a\,ih)\,min(1920/a\,1080))/2)*2,format=yuv420p" -start_at_zero -codec:a:0 copy -copyts -avoid_negative_ts disabled -max_muxing_queue_size 2048 -f hls -max_delay 5000000 -hls_time 3 -hls_segment_type mpegts -start_number 0 -hls_segment_filename "/config/data/transcodes/eef658028977f2963060fe4abe710869%d.ts" -hls_playlist_type vod -hls_list_size 0 -y "/config/data/transcodes/eef658028977f2963060fe4abe710869.m3u8"


ffmpeg version 5.1.3-Jellyfin Copyright (c) 2000-2022 the FFmpeg developers
  built with gcc 11 (Ubuntu 11.3.0-1ubuntu1~22.04.1)
  configuration: --prefix=/usr/lib/jellyfin-ffmpeg --target-os=linux --extra-libs=-lfftw3f --extra-version=Jellyfin --disable-doc --disable-ffplay --disable-ptx-compression --disable-static --disable-libxcb --disable-sdl2 --disable-xlib --enable-lto --enable-gpl --enable-version3 --enable-shared --enable-gmp --enable-gnutls --enable-chromaprint --enable-libdrm --enable-libass --enable-libfreetype --enable-libfribidi --enable-libfontconfig --enable-libbluray --enable-libmp3lame --enable-libopus --enable-libtheora --enable-libvorbis --enable-libopenmpt --enable-libdav1d --enable-libwebp --enable-libvpx --enable-libx264 --enable-libx265 --enable-libzvbi --enable-libzimg --enable-libfdk-aac --arch=amd64 --enable-libsvtav1 --enable-libshaderc --enable-libplacebo --enable-vulkan --enable-opencl --enable-vaapi --enable-amf --enable-libmfx --enable-ffnvcodec --enable-cuda --enable-cuda-llvm --enable-cuvid --enable-nvdec --enable-nvenc
  libavutil      57. 28.100 / 57. 28.100
  libavcodec     59. 37.100 / 59. 37.100
  libavformat    59. 27.100 / 59. 27.100
  libavdevice    59.  7.100 / 59.  7.100
  libavfilter     8. 44.100 /  8. 44.100
  libswscale      6.  7.100 /  6.  7.100
  libswresample   4.  7.100 /  4.  7.100
  libpostproc    56.  6.100 / 56.  6.100
Input #0, mov,mp4,m4a,3gp,3g2,mj2, from 'file:/data/tvshows/Jujutsu Kaisen/Season 2/Jujutsu Kaisen - S02E01 - Hidden Inventory WEBRip-1080p.mp4':
  Metadata:
    major_brand     : isom
    minor_version   : 512
    compatible_brands: isomiso2avc1mp41
    encoder         : Lavf60.3.100
  Duration: 00:23:55.09, start: 0.000000, bitrate: 1899 kb/s
  Chapters:
    Chapter #0:0: start 0.000000, end 649.000000
      Metadata:
        title           : Intro
    Chapter #0:1: start 649.000000, end 739.000000
      Metadata:
        title           : OP
    Chapter #0:2: start 739.000000, end 1330.000000
      Metadata:
        title           : Main EP
    Chapter #0:3: start 1330.000000, end 1420.000000
      Metadata:
        title           : ED
    Chapter #0:4: start 1420.000000, end 1435.086000
      Metadata:
        title           : PV
  Stream #0:0[0x1](und): Video: h264 (High 10) (avc1 / 0x31637661), yuv420p10le(tv, bt709, progressive), 1920x1080 [SAR 1:1 DAR 16:9], 1760 kb/s, 23.98 fps, 23.98 tbr, 24k tbn (default)
    Metadata:
      handler_name    : VideoHandler
      vendor_id       : [0][0][0][0]
      encoder         : Lavc60.3.100 libx264
  Stream #0:1[0x2](eng): Subtitle: mov_text (tx3g / 0x67337874), 0 kb/s (default)
    Metadata:
      handler_name    : SubtitleHandler
  Stream #0:2[0x3](jpn): Audio: aac (LC) (mp4a / 0x6134706D), 44100 Hz, stereo, fltp, 130 kb/s (default)
    Metadata:
      handler_name    : SoundHandler
      vendor_id       : [0][0][0][0]
  Stream #0:3[0x4](eng): Data: bin_data (text / 0x74786574)
    Metadata:
      handler_name    : SubtitleHandler
Stream mapping:
  Stream #0:0 -> #0:0 (h264 (native) -> h264 (libx264))
  Stream #0:2 -> #0:1 (copy)
Press [q] to stop, [?] for help
[libx264 @ 0x55ce8428f580] using SAR=1/1
[libx264 @ 0x55ce8428f580] using cpu capabilities: MMX2 SSE2Fast SSSE3 SSE4.2 AVX FMA3 BMI2 AVX2
[libx264 @ 0x55ce8428f580] profile Main, level 4.0, 4:2:0, 8-bit
[libx264 @ 0x55ce8428f580] 264 - core 163 r3060 5db6aa6 - H.264/MPEG-4 AVC codec - Copyleft 2003-2021 - http://www.videolan.org/x264.html - options: cabac=1 ref=1 deblock=1:0:0 analyse=0x1:0 me=dia subme=0 psy=1 psy_rd=1.00:0.00 mixed_ref=0 me_range=4 chroma_me=0 trellis=0 8x8dct=0 cqm=0 deadzone=21,11 fast_pskip=1 chroma_qp_offset=0 threads=6 lookahead_threads=1 sliced_threads=0 nr=0 decimate=1 interlaced=0 bluray_compat=0 constrained_intra=0 bframes=3 b_pyramid=2 b_adapt=1 b_bias=0 direct=1 weightb=1 open_gop=0 weightp=1 keyint=250 keyint_min=23 scenecut=0 intra_refresh=0 rc_lookahead=10 rc=crf mbtree=1 crf=23.0 qcomp=0.60 qpmin=0 qpmax=69 qpstep=4 vbv_maxrate=4401 vbv_bufsize=8803 crf_max=0.0 nal_hrd=none filler=0 ip_ratio=1.40 aq=1:1.00
Output #0, hls, to '/config/data/transcodes/eef658028977f2963060fe4abe710869.m3u8':
  Metadata:
    encoder         : Lavf59.27.100
  Stream #0:0: Video: h264, yuv420p(tv, bt709, progressive), 1920x1080 [SAR 1:1 DAR 16:9], q=2-31, 23.98 fps, 90k tbn (default)
    Metadata:
      encoder         : Lavc59.37.100 libx264
    Side data:
      cpb: bitrate max/min/avg: 4401000/0/0 buffer size: 8803000 vbv_delay: N/A
  Stream #0:1: Audio: aac (LC) (mp4a / 0x6134706D), 44100 Hz, stereo, fltp, 130 kb/s (default)
frame=    1 fps=0.0 q=0.0 size=N/A time=00:00:00.00 bitrate=N/A speed=   0x    
frame=    6 fps=0.0 q=0.0 size=N/A time=00:00:00.23 bitrate=N/A speed=0.386x    
frame=   13 fps= 11 q=0.0 size=N/A time=00:00:00.51 bitrate=N/A speed=0.448x    
frame=   19 fps= 11 q=0.0 size=N/A time=00:00:00.76 bitrate=N/A speed=0.458x    
frame=   27 fps= 12 q=28.0 size=N/A time=00:00:01.09 bitrate=N/A speed=0.488x    
frame=   45 fps= 16 q=28.0 size=N/A time=00:00:01.85 bitrate=N/A speed=0.655x    
frame=   52 fps= 16 q=28.0 size=N/A time=00:00:02.13 bitrate=N/A speed=0.638x    
frame=   63 fps= 16 q=28.0 size=N/A time=00:00:02.59 bitrate=N/A speed=0.675x    
frame=   82 fps= 19 q=28.0 size=N/A time=00:00:03.39 bitrate=N/A speed=0.779x    
[hls @ 0x55ce841ecdc0] Opening '/config/data/transcodes/eef658028977f2963060fe4abe7108690.ts' for writing
frame=   99 fps= 20 q=28.0 size=N/A time=00:00:04.11 bitrate=N/A speed=0.845x    
frame=  111 fps= 20 q=28.0 size=N/A time=00:00:04.59 bitrate=N/A speed=0.843x    
frame=  122 fps= 20 q=28.0 size=N/A time=00:00:05.06 bitrate=N/A speed=0.848x    
frame=  134 fps= 21 q=28.0 size=N/A time=00:00:05.57 bitrate=N/A speed=0.861x    
frame=  147 fps= 21 q=28.0 size=N/A time=00:00:06.10 bitrate=N/A speed=0.866x    
frame=  163 fps= 22 q=28.0 size=N/A time=00:00:06.78 bitrate=N/A speed=0.896x    
[hls @ 0x55ce841ecdc0] Opening '/config/data/transcodes/eef658028977f2963060fe4abe7108691.ts' for writing
frame=  177 fps= 22 q=28.0 size=N/A time=00:00:07.36 bitrate=N/A speed=0.902x    
frame=  193 fps= 22 q=28.0 size=N/A time=00:00:08.03 bitrate=N/A speed=0.925x    
frame=  212 fps= 23 q=28.0 size=N/A time=00:00:08.82 bitrate=N/A speed=0.959x    
frame=  232 fps= 24 q=25.0 size=N/A time=00:00:09.66 bitrate=N/A speed=0.98x    
[hls @ 0x55ce841ecdc0] Opening '/config/data/transcodes/eef658028977f2963060fe4abe7108692.ts' for writing
frame=  245 fps= 24 q=28.0 size=N/A time=00:00:10.19 bitrate=N/A speed=0.983x    
frame=  257 fps= 24 q=28.0 size=N/A time=00:00:10.70 bitrate=N/A speed=0.984x    
frame=  272 fps= 24 q=28.0 size=N/A time=00:00:11.33 bitrate=N/A speed=0.996x    
frame=  277 fps= 23 q=28.0 size=N/A time=00:00:11.51 bitrate=N/A speed=0.962x    
frame=  281 fps= 23 q=28.0 size=N/A time=00:00:11.70 bitrate=N/A speed=0.938x    
frame=  288 fps= 22 q=28.0 size=N/A time=00:00:11.98 bitrate=N/A speed=0.922x    
frame=  297 fps= 22 q=28.0 size=N/A time=00:00:12.35 bitrate=N/A speed=0.915x    
frame=  308 fps= 22 q=28.0 size=N/A time=00:00:12.81 bitrate=N/A speed=0.91x    
[hls @ 0x55ce841ecdc0] Opening '/config/data/transcodes/eef658028977f2963060fe4abe7108693.ts' for writing
frame=  319 fps= 22 q=28.0 size=N/A time=00:00:13.28 bitrate=N/A speed=0.909x    
frame=  333 fps= 22 q=28.0 size=N/A time=00:00:13.86 bitrate=N/A speed=0.913x    
frame=  349 fps= 22 q=28.0 size=N/A time=00:00:14.53 bitrate=N/A speed=0.926x    
frame=  365 fps= 23 q=28.0 size=N/A time=00:00:15.20 bitrate=N/A speed=0.938x    
frame=  377 fps= 23 q=28.0 size=N/A time=00:00:15.69 bitrate=N/A speed=0.939x    
[hls @ 0x55ce841ecdc0] Opening '/config/data/transcodes/eef658028977f2963060fe4abe7108694.ts' for writing
frame=  391 fps= 23 q=28.0 size=N/A time=00:00:16.27 bitrate=N/A speed=0.946x    
frame=  408 fps= 23 q=28.0 size=N/A time=00:00:16.99 bitrate=N/A speed=0.959x    
frame=  422 fps= 23 q=28.0 size=N/A time=00:00:17.57 bitrate=N/A speed=0.96x    
frame=  436 fps= 23 q=28.0 size=N/A time=00:00:18.15 bitrate=N/A speed=0.965x    
frame=  451 fps= 23 q=28.0 size=N/A time=00:00:18.78 bitrate=N/A speed=0.972x    
[hls @ 0x55ce841ecdc0] Opening '/config/data/transcodes/eef658028977f2963060fe4abe7108695.ts' for writing
frame=  465 fps= 23 q=28.0 size=N/A time=00:00:19.36 bitrate=N/A speed=0.973x    
frame=  480 fps= 24 q=28.0 size=N/A time=00:00:19.99 bitrate=N/A speed=0.98x    
frame=  502 fps= 24 q=28.0 size=N/A time=00:00:20.92 bitrate=N/A speed=   1x    
frame=  518 fps= 24 q=28.0 size=N/A time=00:00:21.57 bitrate=N/A speed=1.01x    
[hls @ 0x55ce841ecdc0] Opening '/config/data/transcodes/eef658028977f2963060fe4abe7108696.ts' for writing
frame=  535 fps= 24 q=28.0 size=N/A time=00:00:22.29 bitrate=N/A speed=1.02x    
frame=  554 fps= 25 q=28.0 size=N/A time=00:00:23.08 bitrate=N/A speed=1.03x    
frame=  580 fps= 25 q=28.0 size=N/A time=00:00:24.17 bitrate=N/A speed=1.05x    
[hls @ 0x55ce841ecdc0] Opening '/config/data/transcodes/eef658028977f2963060fe4abe7108697.ts' for writing
frame=  601 fps= 26 q=28.0 size=N/A time=00:00:25.03 bitrate=N/A speed=1.07x    
frame=  618 fps= 26 q=28.0 size=N/A time=00:00:25.75 bitrate=N/A speed=1.08x    
frame=  640 fps= 26 q=28.0 size=N/A time=00:00:26.65 bitrate=N/A speed=1.09x    
frame=  661 fps= 26 q=28.0 size=N/A time=00:00:27.54 bitrate=N/A speed= 1.1x    
[hls @ 0x55ce841ecdc0] Opening '/config/data/transcodes/eef658028977f2963060fe4abe7108698.ts' for writing
frame=  679 fps= 27 q=28.0 size=N/A time=00:00:28.30 bitrate=N/A speed=1.11x    
frame=  696 fps= 27 q=28.0 size=N/A time=00:00:29.00 bitrate=N/A speed=1.12x    
frame=  709 fps= 27 q=28.0 size=N/A time=00:00:29.53 bitrate=N/A speed=1.11x    
frame=  722 fps= 27 q=28.0 size=N/A time=00:00:30.09 bitrate=N/A speed=1.11x    
frame=  736 fps= 27 q=25.0 size=N/A time=00:00:30.67 bitrate=N/A speed=1.11x    
[hls @ 0x55ce841ecdc0] Opening '/config/data/transcodes/eef658028977f2963060fe4abe7108699.ts' for writing
frame=  757 fps= 27 q=28.0 size=N/A time=00:00:31.55 bitrate=N/A speed=1.12x    
frame=  775 fps= 27 q=28.0 size=N/A time=00:00:32.29 bitrate=N/A speed=1.13x    
frame=  791 fps= 27 q=28.0 size=N/A time=00:00:32.97 bitrate=N/A speed=1.13x    
frame=  805 fps= 27 q=28.0 size=N/A time=00:00:33.55 bitrate=N/A speed=1.13x    
[hls @ 0x55ce841ecdc0] Opening '/config/data/transcodes/eef658028977f2963060fe4abe71086910.ts' for writing
frame=  823 fps= 27 q=28.0 size=N/A time=00:00:34.29 bitrate=N/A speed=1.13x    
frame=  847 fps= 27 q=28.0 size=N/A time=00:00:35.29 bitrate=N/A speed=1.14x    
frame=  865 fps= 28 q=28.0 size=N/A time=00:00:36.06 bitrate=N/A speed=1.15x    
[hls @ 0x55ce841ecdc0] Opening '/config/data/transcodes/eef658028977f2963060fe4abe71086911.ts' for writing
frame=  886 fps= 28 q=28.0 size=N/A time=00:00:36.92 bitrate=N/A speed=1.16x    
frame=  903 fps= 28 q=28.0 size=N/A time=00:00:37.64 bitrate=N/A speed=1.16x    
frame=  919 fps= 28 q=28.0 size=N/A time=00:00:38.31 bitrate=N/A speed=1.16x    
frame=  933 fps= 28 q=28.0 size=N/A time=00:00:38.89 bitrate=N/A speed=1.16x    
frame=  947 fps= 28 q=28.0 size=N/A time=00:00:39.47 bitrate=N/A speed=1.16x    
[hls @ 0x55ce841ecdc0] Opening '/config/data/transcodes/eef658028977f2963060fe4abe71086912.ts' for writing
frame=  961 fps= 28 q=28.0 size=N/A time=00:00:40.05 bitrate=N/A speed=1.16x    
frame=  976 fps= 28 q=28.0 size=N/A time=00:00:40.68 bitrate=N/A speed=1.16x    
frame=  991 fps= 28 q=28.0 size=N/A time=00:00:41.30 bitrate=N/A speed=1.16x    
frame= 1007 fps= 28 q=28.0 size=N/A time=00:00:41.98 bitrate=N/A speed=1.16x    
frame= 1021 fps= 28 q=28.0 size=N/A time=00:00:42.56 bitrate=N/A speed=1.16x    
[hls @ 0x55ce841ecdc0] Opening '/config/data/transcodes/eef658028977f2963060fe4abe71086913.ts' for writing
frame= 1034 fps= 28 q=28.0 size=N/A time=00:00:43.09 bitrate=N/A speed=1.16x    
frame= 1052 fps= 28 q=28.0 size=N/A time=00:00:43.86 bitrate=N/A speed=1.17x    
frame= 1066 fps= 28 q=28.0 size=N/A time=00:00:44.44 bitrate=N/A speed=1.16x    
frame= 1084 fps= 28 q=28.0 size=N/A time=00:00:45.18 bitrate=N/A speed=1.17x    
[hls @ 0x55ce841ecdc0] Opening '/config/data/transcodes/eef658028977f2963060fe4abe71086914.ts' for writing
frame= 1102 fps= 28 q=28.0 size=N/A time=00:00:45.92 bitrate=N/A speed=1.17x    
frame= 1120 fps= 28 q=28.0 size=N/A time=00:00:46.69 bitrate=N/A speed=1.18x    
frame= 1136 fps= 28 q=28.0 size=N/A time=00:00:47.34 bitrate=N/A speed=1.18x    
frame= 1152 fps= 28 q=28.0 size=N/A time=00:00:48.01 bitrate=N/A speed=1.18x    
[hls @ 0x55ce841ecdc0] Opening '/config/data/transcodes/eef658028977f2963060fe4abe71086915.ts' for writing
frame= 1173 fps= 28 q=28.0 size=N/A time=00:00:48.90 bitrate=N/A speed=1.19x    
frame= 1195 fps= 29 q=28.0 size=N/A time=00:00:49.80 bitrate=N/A speed=1.19x    
frame= 1219 fps= 29 q=28.0 size=N/A time=00:00:50.82 bitrate=N/A speed= 1.2x    
frame= 1242 fps= 29 q=28.0 size=N/A time=00:00:51.78 bitrate=N/A speed=1.21x    
[hls @ 0x55ce841ecdc0] Opening '/config/data/transcodes/eef658028977f2963060fe4abe71086916.ts' for writing
frame= 1253 fps= 29 q=28.0 size=N/A time=00:00:52.24 bitrate=N/A speed=1.21x    
frame= 1267 fps= 29 q=28.0 size=N/A time=00:00:52.82 bitrate=N/A speed=1.21x    
frame= 1282 fps= 29 q=28.0 size=N/A time=00:00:53.45 bitrate=N/A speed=1.21x    
frame= 1296 fps= 29 q=28.0 size=N/A time=00:00:54.03 bitrate=N/A speed=1.21x    
frame= 1305 fps= 29 q=30.0 size=N/A time=00:00:54.40 bitrate=N/A speed= 1.2x    
[hls @ 0x55ce841ecdc0] Opening '/config/data/transcodes/eef658028977f2963060fe4abe71086917.ts' for writing
frame= 1316 fps= 29 q=34.0 size=N/A time=00:00:54.87 bitrate=N/A speed=1.19x    
frame= 1329 fps= 29 q=35.0 size=N/A time=00:00:55.40 bitrate=N/A speed=1.19x    
frame= 1341 fps= 29 q=35.0 size=N/A time=00:00:55.91 bitrate=N/A speed=1.19x    
frame= 1357 fps= 29 q=29.0 size=N/A time=00:00:56.56 bitrate=N/A speed=1.19x    
frame= 1375 fps= 29 q=28.0 size=N/A time=00:00:57.33 bitrate=N/A speed=1.19x    
[hls @ 0x55ce841ecdc0] Opening '/config/data/transcodes/eef658028977f2963060fe4abe71086918.ts' for writing
frame= 1388 fps= 28 q=28.0 size=N/A time=00:00:57.86 bitrate=N/A speed=1.19x    
frame= 1403 fps= 28 q=32.0 size=N/A time=00:00:58.49 bitrate=N/A speed=1.19x    
frame= 1421 fps= 29 q=28.0 size=N/A time=00:00:59.23 bitrate=N/A speed=1.19x    
frame= 1434 fps= 28 q=28.0 size=N/A time=00:00:59.79 bitrate=N/A speed=1.19x    
frame= 1451 fps= 28 q=28.0 size=N/A time=00:01:00.48 bitrate=N/A speed=1.19x    
[hls @ 0x55ce841ecdc0] Opening '/config/data/transcodes/eef658028977f2963060fe4abe71086919.ts' for writing
frame= 1469 fps= 29 q=28.0 size=N/A time=00:01:01.25 bitrate=N/A speed=1.19x    
frame= 1488 fps= 29 q=28.0 size=N/A time=00:01:02.04 bitrate=N/A speed=1.19x    
frame= 1511 fps= 29 q=28.0 size=N/A time=00:01:02.99 bitrate=N/A speed= 1.2x    
frame= 1530 fps= 29 q=28.0 size=N/A time=00:01:03.78 bitrate=N/A speed= 1.2x    
[hls @ 0x55ce841ecdc0] Opening '/config/data/transcodes/eef658028977f2963060fe4abe71086920.ts' for writing
frame= 1540 fps= 29 q=28.0 size=N/A time=00:01:04.20 bitrate=N/A speed= 1.2x    
frame= 1556 fps= 29 q=28.0 size=N/A time=00:01:04.87 bitrate=N/A speed= 1.2x    
frame= 1576 fps= 29 q=28.0 size=N/A time=00:01:05.71 bitrate=N/A speed=1.21x    
frame= 1593 fps= 29 q=28.0 size=N/A time=00:01:06.40 bitrate=N/A speed=1.21x    
[hls @ 0x55ce841ecdc0] Opening '/config/data/transcodes/eef658028977f2963060fe4abe71086921.ts' for writing
frame= 1613 fps= 29 q=28.0 size=N/A time=00:01:07.24 bitrate=N/A speed=1.21x    
frame= 1637 fps= 29 q=28.0 size=N/A time=00:01:08.24 bitrate=N/A speed=1.22x    
frame= 1668 fps= 29 q=28.0 size=N/A time=00:01:09.54 bitrate=N/A speed=1.23x    
[hls @ 0x55ce841ecdc0] Opening '/config/data/transcodes/eef658028977f2963060fe4abe71086922.ts' for writing
frame= 1686 fps= 30 q=28.0 size=N/A time=00:01:10.28 bitrate=N/A speed=1.23x    
frame= 1695 fps= 29 q=28.0 size=N/A time=00:01:10.68 bitrate=N/A speed=1.23x    
frame= 1704 fps= 29 q=28.0 size=N/A time=00:01:11.05 bitrate=N/A speed=1.22x    
frame= 1717 fps= 29 q=28.0 size=N/A time=00:01:11.58 bitrate=N/A speed=1.22x    
frame= 1731 fps= 29 q=28.0 size=N/A time=00:01:12.16 bitrate=N/A speed=1.22x    
frame= 1746 fps= 29 q=28.0 size=N/A time=00:01:12.79 bitrate=N/A speed=1.22x    
[hls @ 0x55ce841ecdc0] Opening '/config/data/transcodes/eef658028977f2963060fe4abe71086923.ts' for writing
frame= 1764 fps= 29 q=28.0 size=N/A time=00:01:13.56 bitrate=N/A speed=1.22x    
frame= 1784 fps= 29 q=28.0 size=N/A time=00:01:14.37 bitrate=N/A speed=1.23x    
frame= 1802 fps= 29 q=28.0 size=N/A time=00:01:15.14 bitrate=N/A speed=1.23x    
frame= 1819 fps= 29 q=28.0 size=N/A time=00:01:15.83 bitrate=N/A speed=1.23x    
[hls @ 0x55ce841ecdc0] Opening '/config/data/transcodes/eef658028977f2963060fe4abe71086924.ts' for writing
frame= 1837 fps= 30 q=28.0 size=N/A time=00:01:16.60 bitrate=N/A speed=1.23x    
frame= 1858 fps= 30 q=28.0 size=N/A time=00:01:17.46 bitrate=N/A speed=1.23x    
frame= 1878 fps= 30 q=28.0 size=N/A time=00:01:18.29 bitrate=N/A speed=1.24x    
frame= 1891 fps= 30 q=28.0 size=N/A time=00:01:18.85 bitrate=N/A speed=1.24x    
[hls @ 0x55ce841ecdc0] Opening '/config/data/transcodes/eef658028977f2963060fe4abe71086925.ts' for writing
frame= 1903 fps= 30 q=28.0 size=N/A time=00:01:19.34 bitrate=N/A speed=1.23x    
frame= 1916 fps= 30 q=28.0 size=N/A time=00:01:19.87 bitrate=N/A speed=1.23x    
frame= 1929 fps= 30 q=28.0 size=N/A time=00:01:20.43 bitrate=N/A speed=1.23x    
frame= 1944 fps= 30 q=28.0 size=N/A time=00:01:21.06 bitrate=N/A speed=1.23x    
frame= 1958 fps= 30 q=28.0 size=N/A time=00:01:21.64 bitrate=N/A speed=1.23x    
[hls @ 0x55ce841ecdc0] Opening '/config/data/transcodes/eef658028977f2963060fe4abe71086926.ts' for writing
frame= 1971 fps= 30 q=28.0 size=N/A time=00:01:22.17 bitrate=N/A speed=1.23x    
frame= 1983 fps= 29 q=28.0 size=N/A time=00:01:22.68 bitrate=N/A speed=1.23x    
frame= 1994 fps= 29 q=28.0 size=N/A time=00:01:23.15 bitrate=N/A speed=1.23x    
frame= 2006 fps= 29 q=28.0 size=N/A time=00:01:23.63 bitrate=N/A speed=1.22x    
frame= 2018 fps= 29 q=28.0 size=N/A time=00:01:24.14 bitrate=N/A speed=1.22x    
frame= 2030 fps= 29 q=25.0 size=N/A time=00:01:24.63 bitrate=N/A speed=1.22x    
[hls @ 0x55ce841ecdc0] Opening '/config/data/transcodes/eef658028977f2963060fe4abe71086927.ts' for writing
frame= 2045 fps= 29 q=28.0 size=N/A time=00:01:25.26 bitrate=N/A speed=1.22x    
frame= 2058 fps= 29 q=28.0 size=N/A time=00:01:25.82 bitrate=N/A speed=1.22x    
frame= 2074 fps= 29 q=28.0 size=N/A time=00:01:26.47 bitrate=N/A speed=1.22x    
frame= 2084 fps= 29 q=28.0 size=N/A time=00:01:26.89 bitrate=N/A speed=1.21x    
frame= 2099 fps= 29 q=28.0 size=N/A time=00:01:27.51 bitrate=N/A speed=1.22x    
[hls @ 0x55ce841ecdc0] Opening '/config/data/transcodes/eef658028977f2963060fe4abe71086928.ts' for writing
frame= 2115 fps= 29 q=28.0 size=N/A time=00:01:28.19 bitrate=N/A speed=1.22x    
frame= 2129 fps= 29 q=28.0 size=N/A time=00:01:28.77 bitrate=N/A speed=1.21x    
frame= 2140 fps= 29 q=28.0 size=N/A time=00:01:29.23 bitrate=N/A speed=1.21x    
frame= 2153 fps= 29 q=28.0 size=N/A time=00:01:29.76 bitrate=N/A speed=1.21x    
frame= 2164 fps= 29 q=28.0 size=N/A time=00:01:30.23 bitrate=N/A speed=1.21x    
[hls @ 0x55ce841ecdc0] Opening '/config/data/transcodes/eef658028977f2963060fe4abe71086929.ts' for writing
frame= 2179 fps= 29 q=28.0 size=N/A time=00:01:30.86 bitrate=N/A speed=1.21x    
frame= 2197 fps= 29 q=28.0 size=N/A time=00:01:31.60 bitrate=N/A speed=1.21x    
frame= 2217 fps= 29 q=28.0 size=N/A time=00:01:32.43 bitrate=N/A speed=1.21x    
frame= 2236 fps= 29 q=28.0 size=N/A time=00:01:33.22 bitrate=N/A speed=1.21x    
[hls @ 0x55ce841ecdc0] Opening '/config/data/transcodes/eef658028977f2963060fe4abe71086930.ts' for writing
frame= 2256 fps= 29 q=28.0 size=N/A time=00:01:34.06 bitrate=N/A speed=1.22x    
frame= 2269 fps= 29 q=28.0 size=N/A time=00:01:34.62 bitrate=N/A speed=1.22x    
frame= 2277 fps= 29 q=28.0 size=N/A time=00:01:34.94 bitrate=N/A speed=1.21x    
frame= 2289 fps= 29 q=28.0 size=N/A time=00:01:35.43 bitrate=N/A speed=1.21x    
frame= 2301 fps= 29 q=28.0 size=N/A time=00:01:35.94 bitrate=N/A speed=1.21x    
frame= 2317 fps= 29 q=28.0 size=N/A time=00:01:36.61 bitrate=N/A speed=1.21x    
[hls @ 0x55ce841ecdc0] Opening '/config/data/transcodes/eef658028977f2963060fe4abe71086931.ts' for writing
frame= 2329 fps= 29 q=28.0 size=N/A time=00:01:37.10 bitrate=N/A speed=1.21x    
frame= 2341 fps= 29 q=28.0 size=N/A time=00:01:37.61 bitrate=N/A speed=1.21x    
frame= 2351 fps= 29 q=28.0 size=N/A time=00:01:38.03 bitrate=N/A speed= 1.2x    
frame= 2364 fps= 29 q=28.0 size=N/A time=00:01:38.56 bitrate=N/A speed= 1.2x    
frame= 2380 fps= 29 q=28.0 size=N/A time=00:01:39.24 bitrate=N/A speed= 1.2x    
frame= 2390 fps= 29 q=25.0 size=N/A time=00:01:39.66 bitrate=N/A speed= 1.2x    
[hls @ 0x55ce841ecdc0] Opening '/config/data/transcodes/eef658028977f2963060fe4abe71086932.ts' for writing
frame= 2400 fps= 29 q=28.0 size=N/A time=00:01:40.07 bitrate=N/A speed= 1.2x    
frame= 2411 fps= 29 q=28.0 size=N/A time=00:01:40.54 bitrate=N/A speed= 1.2x    
frame= 2420 fps= 29 q=28.0 size=N/A time=00:01:40.91 bitrate=N/A speed=1.19x    
frame= 2429 fps= 29 q=28.0 size=N/A time=00:01:41.28 bitrate=N/A speed=1.19x    
frame= 2438 fps= 28 q=28.0 size=N/A time=00:01:41.65 bitrate=N/A speed=1.19x    
frame= 2450 fps= 28 q=28.0 size=N/A time=00:01:42.16 bitrate=N/A speed=1.18x    
frame= 2460 fps= 28 q=28.0 size=N/A time=00:01:42.58 bitrate=N/A speed=1.18x    
[hls @ 0x55ce841ecdc0] Opening '/config/data/transcodes/eef658028977f2963060fe4abe71086933.ts' for writing
frame= 2467 fps= 28 q=28.0 size=N/A time=00:01:42.86 bitrate=N/A speed=1.18x    
frame= 2479 fps= 28 q=28.0 size=N/A time=00:01:43.37 bitrate=N/A speed=1.18x    
frame= 2491 fps= 28 q=28.0 size=N/A time=00:01:43.86 bitrate=N/A speed=1.17x    
frame= 2507 fps= 28 q=28.0 size=N/A time=00:01:44.53 bitrate=N/A speed=1.18x    
frame= 2519 fps= 28 q=28.0 size=N/A time=00:01:45.04 bitrate=N/A speed=1.17x    
frame= 2531 fps= 28 q=28.0 size=N/A time=00:01:45.53 bitrate=N/A speed=1.17x    
[hls @ 0x55ce841ecdc0] Opening '/config/data/transcodes/eef658028977f2963060fe4abe71086934.ts' for writing
frame= 2540 fps= 28 q=28.0 size=N/A time=00:01:45.90 bitrate=N/A speed=1.17x    
frame= 2551 fps= 28 q=28.0 size=N/A time=00:01:46.37 bitrate=N/A speed=1.17x    
frame= 2561 fps= 28 q=28.0 size=N/A time=00:01:46.78 bitrate=N/A speed=1.17x    
frame= 2571 fps= 28 q=28.0 size=N/A time=00:01:47.20 bitrate=N/A speed=1.16x    
frame= 2579 fps= 28 q=28.0 size=N/A time=00:01:47.53 bitrate=N/A speed=1.16x    
frame= 2592 fps= 28 q=28.0 size=N/A time=00:01:48.08 bitrate=N/A speed=1.16x    
frame= 2605 fps= 28 q=28.0 size=N/A time=00:01:48.62 bitrate=N/A speed=1.16x    
[hls @ 0x55ce841ecdc0] Opening '/config/data/transcodes/eef658028977f2963060fe4abe71086935.ts' for writing
frame= 2616 fps= 28 q=28.0 size=N/A time=00:01:49.08 bitrate=N/A speed=1.16x    
frame= 2627 fps= 28 q=28.0 size=N/A time=00:01:49.55 bitrate=N/A speed=1.16x    
frame= 2639 fps= 28 q=28.0 size=N/A time=00:01:50.03 bitrate=N/A speed=1.15x    
frame= 2651 fps= 28 q=28.0 size=N/A time=00:01:50.55 bitrate=N/A speed=1.15x    
frame= 2662 fps= 28 q=28.0 size=N/A time=00:01:50.99 bitrate=N/A speed=1.15x    
frame= 2675 fps= 28 q=28.0 size=N/A time=00:01:51.54 bitrate=N/A speed=1.15x    
[hls @ 0x55ce841ecdc0] Opening '/config/data/transcodes/eef658028977f2963060fe4abe71086936.ts' for writing
frame= 2687 fps= 28 q=28.0 size=N/A time=00:01:52.06 bitrate=N/A speed=1.15x    
frame= 2700 fps= 28 q=28.0 size=N/A time=00:01:52.59 bitrate=N/A speed=1.15x    
frame= 2714 fps= 28 q=28.0 size=N/A time=00:01:53.17 bitrate=N/A speed=1.15x    
frame= 2727 fps= 28 q=28.0 size=N/A time=00:01:53.70 bitrate=N/A speed=1.15x    
frame= 2739 fps= 28 q=28.0 size=N/A time=00:01:54.21 bitrate=N/A speed=1.15x    
frame= 2752 fps= 28 q=28.0 size=N/A time=00:01:54.75 bitrate=N/A speed=1.15x    
[hls @ 0x55ce841ecdc0] Opening '/config/data/transcodes/eef658028977f2963060fe4abe71086937.ts' for writing
frame= 2763 fps= 28 q=28.0 size=N/A time=00:01:55.21 bitrate=N/A speed=1.15x    
frame= 2775 fps= 27 q=28.0 size=N/A time=00:01:55.70 bitrate=N/A speed=1.15x    
frame= 2787 fps= 27 q=28.0 size=N/A time=00:01:56.21 bitrate=N/A speed=1.14x    
frame= 2799 fps= 27 q=28.0 size=N/A time=00:01:56.72 bitrate=N/A speed=1.14x    
frame= 2816 fps= 27 q=28.0 size=N/A time=00:01:57.42 bitrate=N/A speed=1.14x    
[hls @ 0x55ce841ecdc0] Opening '/config/data/transcodes/eef658028977f2963060fe4abe71086938.ts' for writing
frame= 2835 fps= 27 q=28.0 size=N/A time=00:01:58.21 bitrate=N/A speed=1.15x    
frame= 2857 fps= 28 q=28.0 size=N/A time=00:01:59.14 bitrate=N/A speed=1.15x    
frame= 2878 fps= 28 q=28.0 size=N/A time=00:02:00.00 bitrate=N/A speed=1.15x    
[hls @ 0x55ce841ecdc0] Opening '/config/data/transcodes/eef658028977f2963060fe4abe71086939.ts' for writing
frame= 2900 fps= 28 q=28.0 size=N/A time=00:02:00.92 bitrate=N/A speed=1.15x    
frame= 2925 fps= 28 q=28.0 size=N/A time=00:02:01.97 bitrate=N/A speed=1.16x    
frame= 2947 fps= 28 q=28.0 size=N/A time=00:02:02.88 bitrate=N/A speed=1.16x    
frame= 2969 fps= 28 q=28.0 size=N/A time=00:02:03.80 bitrate=N/A speed=1.16x    
[hls @ 0x55ce841ecdc0] Opening '/config/data/transcodes/eef658028977f2963060fe4abe71086940.ts' for writing
frame= 2991 fps= 28 q=28.0 size=N/A time=00:02:04.71 bitrate=N/A speed=1.17x    
frame= 3018 fps= 28 q=28.0 size=N/A time=00:02:05.85 bitrate=N/A speed=1.17x    
frame= 3038 fps= 28 q=28.0 size=N/A time=00:02:06.68 bitrate=N/A speed=1.17x    
[hls @ 0x55ce841ecdc0] Opening '/config/data/transcodes/eef658028977f2963060fe4abe71086941.ts' for writing
frame= 3060 fps= 28 q=28.0 size=N/A time=00:02:07.59 bitrate=N/A speed=1.18x    
frame= 3084 fps= 28 q=28.0 size=N/A time=00:02:08.59 bitrate=N/A speed=1.18x    
frame= 3108 fps= 28 q=28.0 size=N/A time=00:02:09.61 bitrate=N/A speed=1.19x    
[hls @ 0x55ce841ecdc0] Opening '/config/data/transcodes/eef658028977f2963060fe4abe71086942.ts' for writing
frame= 3128 fps= 28 q=28.0 size=N/A time=00:02:10.45 bitrate=N/A speed=1.19x    
frame= 3154 fps= 29 q=28.0 size=N/A time=00:02:11.51 bitrate=N/A speed=1.19x    
frame= 3178 fps= 29 q=28.0 size=N/A time=00:02:12.51 bitrate=N/A speed= 1.2x    
[hls @ 0x55ce841ecdc0] Opening '/config/data/transcodes/eef658028977f2963060fe4abe71086943.ts' for writing
frame= 3199 fps= 29 q=28.0 size=N/A time=00:02:13.39 bitrate=N/A speed= 1.2x    
frame= 3223 fps= 29 q=28.0 size=N/A time=00:02:14.39 bitrate=N/A speed= 1.2x    
frame= 3253 fps= 29 q=25.0 size=N/A time=00:02:15.65 bitrate=N/A speed=1.21x    
[hls @ 0x55ce841ecdc0] Opening '/config/data/transcodes/eef658028977f2963060fe4abe71086944.ts' for writing
frame= 3273 fps= 29 q=28.0 size=N/A time=00:02:16.48 bitrate=N/A speed=1.21x    
frame= 3294 fps= 29 q=28.0 size=N/A time=00:02:17.37 bitrate=N/A speed=1.21x    
frame= 3321 fps= 29 q=28.0 size=N/A time=00:02:18.48 bitrate=N/A speed=1.22x    
[hls @ 0x55ce841ecdc0] Opening '/config/data/transcodes/eef658028977f2963060fe4abe71086945.ts' for writing
frame= 3348 fps= 29 q=28.0 size=N/A time=00:02:19.62 bitrate=N/A speed=1.22x    
frame= 3375 fps= 29 q=28.0 size=N/A time=00:02:20.73 bitrate=N/A speed=1.22x    
frame= 3394 fps= 29 q=28.0 size=N/A time=00:02:21.52 bitrate=N/A speed=1.23x    
[hls @ 0x55ce841ecdc0] Opening '/config/data/transcodes/eef658028977f2963060fe4abe71086946.ts' for writing
frame= 3413 fps= 29 q=28.0 size=N/A time=00:02:22.31 bitrate=N/A speed=1.23x    
frame= 3440 fps= 30 q=28.0 size=N/A time=00:02:23.45 bitrate=N/A speed=1.23x    
frame= 3465 fps= 30 q=28.0 size=N/A time=00:02:24.49 bitrate=N/A speed=1.23x    
[hls @ 0x55ce841ecdc0] Opening '/config/data/transcodes/eef658028977f2963060fe4abe71086947.ts' for writing
frame= 3484 fps= 30 q=28.0 size=N/A time=00:02:25.28 bitrate=N/A speed=1.24x    
frame= 3507 fps= 30 q=28.0 size=N/A time=00:02:26.24 bitrate=N/A speed=1.24x    
frame= 3529 fps= 30 q=28.0 size=N/A time=00:02:27.16 bitrate=N/A speed=1.24x    
frame= 3542 fps= 30 q=28.0 size=N/A time=00:02:27.70 bitrate=N/A speed=1.24x    
[hls @ 0x55ce841ecdc0] Opening '/config/data/transcodes/eef658028977f2963060fe4abe71086948.ts' for writing
frame= 3561 fps= 30 q=28.0 size=N/A time=00:02:28.49 bitrate=N/A speed=1.24x    
frame= 3583 fps= 30 q=28.0 size=N/A time=00:02:29.42 bitrate=N/A speed=1.24x    
frame= 3602 fps= 30 q=28.0 size=N/A time=00:02:30.21 bitrate=N/A speed=1.25x    
[hls @ 0x55ce841ecdc0] Opening '/config/data/transcodes/eef658028977f2963060fe4abe71086949.ts' for writing
frame= 3618 fps= 30 q=28.0 size=N/A time=00:02:30.88 bitrate=N/A speed=1.24x    
frame= 3638 fps= 30 q=28.0 size=N/A time=00:02:31.71 bitrate=N/A speed=1.25x    
frame= 3659 fps= 30 q=28.0 size=N/A time=00:02:32.57 bitrate=N/A speed=1.25x    
frame= 3680 fps= 30 q=28.0 size=N/A time=00:02:33.46 bitrate=N/A speed=1.25x    
[hls @ 0x55ce841ecdc0] Opening '/config/data/transcodes/eef658028977f2963060fe4abe71086950.ts' for writing
frame= 3697 fps= 30 q=28.0 size=N/A time=00:02:34.18 bitrate=N/A speed=1.25x    
frame= 3718 fps= 30 q=28.0 size=N/A time=00:02:35.04 bitrate=N/A speed=1.25x    
frame= 3734 fps= 30 q=28.0 size=N/A time=00:02:35.71 bitrate=N/A speed=1.25x    
frame= 3748 fps= 30 q=28.0 size=N/A time=00:02:36.29 bitrate=N/A speed=1.25x    
frame= 3758 fps= 30 q=28.0 size=N/A time=00:02:36.71 bitrate=N/A speed=1.25x    
[hls @ 0x55ce841ecdc0] Opening '/config/data/transcodes/eef658028977f2963060fe4abe71086951.ts' for writing
frame= 3771 fps= 30 q=28.0 size=N/A time=00:02:37.24 bitrate=N/A speed=1.25x    
frame= 3783 fps= 30 q=28.0 size=N/A time=00:02:37.75 bitrate=N/A speed=1.25x    
frame= 3796 fps= 30 q=28.0 size=N/A time=00:02:38.29 bitrate=N/A speed=1.25x    
frame= 3812 fps= 30 q=28.0 size=N/A time=00:02:38.96 bitrate=N/A speed=1.25x    
frame= 3824 fps= 30 q=28.0 size=N/A time=00:02:39.47 bitrate=N/A speed=1.25x    
[hls @ 0x55ce841ecdc0] Opening '/config/data/transcodes/eef658028977f2963060fe4abe71086952.ts' for writing
frame= 3839 fps= 30 q=28.0 size=N/A time=00:02:40.10 bitrate=N/A speed=1.25x    
frame= 3859 fps= 30 q=28.0 size=N/A time=00:02:40.93 bitrate=N/A speed=1.25x    
frame= 3882 fps= 30 q=28.0 size=N/A time=00:02:41.88 bitrate=N/A speed=1.25x    
frame= 3901 fps= 30 q=25.0 size=N/A time=00:02:42.67 bitrate=N/A speed=1.25x    
[hls @ 0x55ce841ecdc0] Opening '/config/data/transcodes/eef658028977f2963060fe4abe71086953.ts' for writing
frame= 3922 fps= 30 q=28.0 size=N/A time=00:02:43.56 bitrate=N/A speed=1.25x    
frame= 3943 fps= 30 q=28.0 size=N/A time=00:02:44.42 bitrate=N/A speed=1.25x    
frame= 3965 fps= 30 q=28.0 size=N/A time=00:02:45.35 bitrate=N/A speed=1.26x    
[hls @ 0x55ce841ecdc0] Opening '/config/data/transcodes/eef658028977f2963060fe4abe71086954.ts' for writing
frame= 3983 fps= 30 q=28.0 size=N/A time=00:02:46.09 bitrate=N/A speed=1.26x    
frame= 4007 fps= 30 q=28.0 size=N/A time=00:02:47.09 bitrate=N/A speed=1.26x    
frame= 4024 fps= 30 q=28.0 size=N/A time=00:02:47.81 bitrate=N/A speed=1.26x    
frame= 4039 fps= 30 q=28.0 size=N/A time=00:02:48.43 bitrate=N/A speed=1.26x    
[hls @ 0x55ce841ecdc0] Opening '/config/data/transcodes/eef658028977f2963060fe4abe71086955.ts' for writing
frame= 4051 fps= 30 q=28.0 size=N/A time=00:02:48.92 bitrate=N/A speed=1.26x    
frame= 4070 fps= 30 q=28.0 size=N/A time=00:02:49.73 bitrate=N/A speed=1.26x    
frame= 4085 fps= 30 q=28.0 size=N/A time=00:02:50.36 bitrate=N/A speed=1.26x    
frame= 4102 fps= 30 q=28.0 size=N/A time=00:02:51.06 bitrate=N/A speed=1.26x    
frame= 4116 fps= 30 q=25.0 size=N/A time=00:02:51.64 bitrate=N/A speed=1.26x    
[hls @ 0x55ce841ecdc0] Opening '/config/data/transcodes/eef658028977f2963060fe4abe71086956.ts' for writing
frame= 4126 fps= 30 q=28.0 size=N/A time=00:02:52.06 bitrate=N/A speed=1.26x    
frame= 4138 fps= 30 q=28.0 size=N/A time=00:02:52.57 bitrate=N/A speed=1.26x    
frame= 4151 fps= 30 q=28.0 size=N/A time=00:02:53.10 bitrate=N/A speed=1.26x    
frame= 4161 fps= 30 q=28.0 size=N/A time=00:02:53.52 bitrate=N/A speed=1.25x    
frame= 4173 fps= 30 q=28.0 size=N/A time=00:02:54.03 bitrate=N/A speed=1.25x    
frame= 4185 fps= 30 q=28.0 size=N/A time=00:02:54.52 bitrate=N/A speed=1.25x    
[hls @ 0x55ce841ecdc0] Opening '/config/data/transcodes/eef658028977f2963060fe4abe71086957.ts' for writing
frame= 4198 fps= 30 q=28.0 size=N/A time=00:02:55.05 bitrate=N/A speed=1.25x    
frame= 4210 fps= 30 q=28.0 size=N/A time=00:02:55.56 bitrate=N/A speed=1.25x    
frame= 4221 fps= 30 q=28.0 size=N/A time=00:02:56.03 bitrate=N/A speed=1.25x    
frame= 4231 fps= 30 q=28.0 size=N/A time=00:02:56.44 bitrate=N/A speed=1.25x    
frame= 4245 fps= 30 q=28.0 size=N/A time=00:02:57.02 bitrate=N/A speed=1.24x    
frame= 4256 fps= 30 q=28.0 size=N/A time=00:02:57.49 bitrate=N/A speed=1.24x    
frame= 4264 fps= 30 q=28.0 size=N/A time=00:02:57.81 bitrate=N/A speed=1.24x    
[hls @ 0x55ce841ecdc0] Opening '/config/data/transcodes/eef658028977f2963060fe4abe71086958.ts' for writing
frame= 4274 fps= 30 q=28.0 size=N/A time=00:02:58.23 bitrate=N/A speed=1.24x    
frame= 4286 fps= 30 q=28.0 size=N/A time=00:02:58.74 bitrate=N/A speed=1.24x    
frame= 4305 fps= 30 q=28.0 size=N/A time=00:02:59.53 bitrate=N/A speed=1.24x    
frame= 4321 fps= 30 q=28.0 size=N/A time=00:03:00.18 bitrate=N/A speed=1.24x    
[hls @ 0x55ce841ecdc0] Opening '/config/data/transcodes/eef658028977f2963060fe4abe71086959.ts' for writing
frame= 4339 fps= 30 q=28.0 size=N/A time=00:03:00.95 bitrate=N/A speed=1.24x    
frame= 4353 fps= 30 q=28.0 size=N/A time=00:03:01.53 bitrate=N/A speed=1.24x    
frame= 4373 fps= 30 q=28.0 size=N/A time=00:03:02.37 bitrate=N/A speed=1.24x    
frame= 4391 fps= 30 q=28.0 size=N/A time=00:03:03.11 bitrate=N/A speed=1.24x    
frame= 4405 fps= 30 q=28.0 size=N/A time=00:03:03.69 bitrate=N/A speed=1.24x    
[hls @ 0x55ce841ecdc0] Opening '/config/data/transcodes/eef658028977f2963060fe4abe71086960.ts' for writing
frame= 4421 fps= 30 q=28.0 size=N/A time=00:03:04.36 bitrate=N/A speed=1.24x    
frame= 4441 fps= 30 q=28.0 size=N/A time=00:03:05.20 bitrate=N/A speed=1.24x    
frame= 4454 fps= 30 q=28.0 size=N/A time=00:03:05.73 bitrate=N/A speed=1.24x    
frame= 4464 fps= 30 q=28.0 size=N/A time=00:03:06.15 bitrate=N/A speed=1.24x    
[hls @ 0x55ce841ecdc0] Opening '/config/data/transcodes/eef658028977f2963060fe4abe71086961.ts' for writing
frame= 4481 fps= 30 q=28.0 size=N/A time=00:03:06.87 bitrate=N/A speed=1.24x    
frame= 4499 fps= 30 q=28.0 size=N/A time=00:03:07.61 bitrate=N/A speed=1.24x    
frame= 4511 fps= 30 q=28.0 size=N/A time=00:03:08.12 bitrate=N/A speed=1.24x    
frame= 4521 fps= 30 q=28.0 size=N/A time=00:03:08.54 bitrate=N/A speed=1.24x    
frame= 4538 fps= 30 q=28.0 size=N/A time=00:03:09.24 bitrate=N/A speed=1.24x    
[hls @ 0x55ce841ecdc0] Opening '/config/data/transcodes/eef658028977f2963060fe4abe71086962.ts' for writing
frame= 4556 fps= 30 q=28.0 size=N/A time=00:03:10.00 bitrate=N/A speed=1.24x    
frame= 4574 fps= 30 q=28.0 size=N/A time=00:03:10.75 bitrate=N/A speed=1.24x    
frame= 4591 fps= 30 q=28.0 size=N/A time=00:03:11.45 bitrate=N/A speed=1.24x    
frame= 4613 fps= 30 q=28.0 size=N/A time=00:03:12.37 bitrate=N/A speed=1.24x    
[hls @ 0x55ce841ecdc0] Opening '/config/data/transcodes/eef658028977f2963060fe4abe71086963.ts' for writing
frame= 4634 fps= 30 q=28.0 size=N/A time=00:03:13.26 bitrate=N/A speed=1.24x    
frame= 4658 fps= 30 q=28.0 size=N/A time=00:03:14.25 bitrate=N/A speed=1.25x    
frame= 4681 fps= 30 q=28.0 size=N/A time=00:03:15.21 bitrate=N/A speed=1.25x    
[hls @ 0x55ce841ecdc0] Opening '/config/data/transcodes/eef658028977f2963060fe4abe71086964.ts' for writing
frame= 4704 fps= 30 q=28.0 size=N/A time=00:03:16.16 bitrate=N/A speed=1.25x    
frame= 4729 fps= 30 q=28.0 size=N/A time=00:03:17.20 bitrate=N/A speed=1.25x    
frame= 4754 fps= 30 q=28.0 size=N/A time=00:03:18.25 bitrate=N/A speed=1.25x    
[hls @ 0x55ce841ecdc0] Opening '/config/data/transcodes/eef658028977f2963060fe4abe71086965.ts' for writing
frame= 4778 fps= 30 q=28.0 size=N/A time=00:03:19.25 bitrate=N/A speed=1.26x    
frame= 4806 fps= 30 q=28.0 size=N/A time=00:03:20.43 bitrate=N/A speed=1.26x    
frame= 4833 fps= 30 q=28.0 size=N/A time=00:03:21.55 bitrate=N/A speed=1.26x    
[hls @ 0x55ce841ecdc0] Opening '/config/data/transcodes/eef658028977f2963060fe4abe71086966.ts' for writing
frame= 4852 fps= 30 q=28.0 size=N/A time=00:03:22.33 bitrate=N/A speed=1.26x    
frame= 4871 fps= 30 q=28.0 size=N/A time=00:03:23.12 bitrate=N/A speed=1.26x    
frame= 4891 fps= 30 q=28.0 size=N/A time=00:03:23.96 bitrate=N/A speed=1.27x    
frame= 4909 fps= 30 q=28.0 size=N/A time=00:03:24.73 bitrate=N/A speed=1.27x    
[hls @ 0x55ce841ecdc0] Opening '/config/data/transcodes/eef658028977f2963060fe4abe71086967.ts' for writing
frame= 4925 fps= 30 q=28.0 size=N/A time=00:03:25.38 bitrate=N/A speed=1.27x    
frame= 4937 fps= 30 q=28.0 size=N/A time=00:03:25.89 bitrate=N/A speed=1.27x    
frame= 4953 fps= 30 q=28.0 size=N/A time=00:03:26.56 bitrate=N/A speed=1.27x    
frame= 4966 fps= 30 q=28.0 size=N/A time=00:03:27.09 bitrate=N/A speed=1.27x    
frame= 4981 fps= 30 q=28.0 size=N/A time=00:03:27.72 bitrate=N/A speed=1.27x    
[hls @ 0x55ce841ecdc0] Opening '/config/data/transcodes/eef658028977f2963060fe4abe71086968.ts' for writing
frame= 4993 fps= 30 q=28.0 size=N/A time=00:03:28.21 bitrate=N/A speed=1.26x    
frame= 5006 fps= 30 q=28.0 size=N/A time=00:03:28.77 bitrate=N/A speed=1.26x    
frame= 5024 fps= 30 q=28.0 size=N/A time=00:03:29.51 bitrate=N/A speed=1.26x    
frame= 5039 fps= 30 q=28.0 size=N/A time=00:03:30.14 bitrate=N/A speed=1.26x    
frame= 5054 fps= 30 q=28.0 size=N/A time=00:03:30.76 bitrate=N/A speed=1.26x    
[hls @ 0x55ce841ecdc0] Opening '/config/data/transcodes/eef658028977f2963060fe4abe71086969.ts' for writing
frame= 5072 fps= 30 q=28.0 size=N/A time=00:03:31.51 bitrate=N/A speed=1.26x    
frame= 5099 fps= 30 q=28.0 size=N/A time=00:03:32.64 bitrate=N/A speed=1.27x    
frame= 5121 fps= 30 q=28.0 size=N/A time=00:03:33.55 bitrate=N/A speed=1.27x    
[hls @ 0x55ce841ecdc0] Opening '/config/data/transcodes/eef658028977f2963060fe4abe71086970.ts' for writing
frame= 5147 fps= 30 q=28.0 size=N/A time=00:03:34.64 bitrate=N/A speed=1.27x    
frame= 5176 fps= 31 q=28.0 size=N/A time=00:03:35.85 bitrate=N/A speed=1.27x    
[hls @ 0x55ce841ecdc0] Opening '/config/data/transcodes/eef658028977f2963060fe4abe71086971.ts' for writing
frame= 5200 fps= 31 q=28.0 size=N/A time=00:03:36.85 bitrate=N/A speed=1.28x    
frame= 5217 fps= 31 q=28.0 size=N/A time=00:03:37.57 bitrate=N/A speed=1.28x    
frame= 5238 fps= 31 q=28.0 size=N/A time=00:03:38.45 bitrate=N/A speed=1.28x    
frame= 5262 fps= 31 q=28.0 size=N/A time=00:03:39.45 bitrate=N/A speed=1.28x    
[hls @ 0x55ce841ecdc0] Opening '/config/data/transcodes/eef658028977f2963060fe4abe71086972.ts' for writing
frame= 5284 fps= 31 q=28.0 size=N/A time=00:03:40.35 bitrate=N/A speed=1.28x    
frame= 5308 fps= 31 q=28.0 size=N/A time=00:03:41.35 bitrate=N/A speed=1.28x    
frame= 5334 fps= 31 q=28.0 size=N/A time=00:03:42.44 bitrate=N/A speed=1.29x    
[hls @ 0x55ce841ecdc0] Opening '/config/data/transcodes/eef658028977f2963060fe4abe71086973.ts' for writing
frame= 5362 fps= 31 q=28.0 size=N/A time=00:03:43.60 bitrate=N/A speed=1.29x    
frame= 5384 fps= 31 q=28.0 size=N/A time=00:03:44.53 bitrate=N/A speed=1.29x    
frame= 5404 fps= 31 q=28.0 size=N/A time=00:03:45.37 bitrate=N/A speed=1.29x    
[hls @ 0x55ce841ecdc0] Opening '/config/data/transcodes/eef658028977f2963060fe4abe71086974.ts' for writing
frame= 5432 fps= 31 q=28.0 size=N/A time=00:03:46.53 bitrate=N/A speed=1.29x    
frame= 5458 fps= 31 q=28.0 size=N/A time=00:03:47.62 bitrate=N/A speed= 1.3x    
frame= 5472 fps= 31 q=28.0 size=N/A time=00:03:48.20 bitrate=N/A speed= 1.3x    
frame= 5483 fps= 31 q=25.0 size=N/A time=00:03:48.67 bitrate=N/A speed= 1.3x    
[hls @ 0x55ce841ecdc0] Opening '/config/data/transcodes/eef658028977f2963060fe4abe71086975.ts' for writing
frame= 5498 fps= 31 q=28.0 size=N/A time=00:03:49.29 bitrate=N/A speed=1.29x    
frame= 5516 fps= 31 q=28.0 size=N/A time=00:03:50.04 bitrate=N/A speed= 1.3x    
frame= 5533 fps= 31 q=28.0 size=N/A time=00:03:50.73 bitrate=N/A speed= 1.3x    
frame= 5548 fps= 31 q=28.0 size=N/A time=00:03:51.36 bitrate=N/A speed= 1.3x    
[hls @ 0x55ce841ecdc0] Opening '/config/data/transcodes/eef658028977f2963060fe4abe71086976.ts' for writing
frame= 5565 fps= 31 q=28.0 size=N/A time=00:03:52.08 bitrate=N/A speed= 1.3x    
frame= 5579 fps= 31 q=28.0 size=N/A time=00:03:52.66 bitrate=N/A speed= 1.3x    
frame= 5588 fps= 31 q=28.0 size=N/A time=00:03:53.03 bitrate=N/A speed=1.29x    
frame= 5597 fps= 31 q=28.0 size=N/A time=00:03:53.40 bitrate=N/A speed=1.29x    
frame= 5614 fps= 31 q=28.0 size=N/A time=00:03:54.12 bitrate=N/A speed=1.29x    
frame= 5630 fps= 31 q=28.0 size=N/A time=00:03:54.80 bitrate=N/A speed=1.29x    
[hls @ 0x55ce841ecdc0] Opening '/config/data/transcodes/eef658028977f2963060fe4abe71086977.ts' for writing
frame= 5645 fps= 31 q=28.0 size=N/A time=00:03:55.42 bitrate=N/A speed=1.29x    
frame= 5661 fps= 31 q=28.0 size=N/A time=00:03:56.07 bitrate=N/A speed=1.29x    
frame= 5676 fps= 31 q=28.0 size=N/A time=00:03:56.70 bitrate=N/A speed=1.29x    
frame= 5690 fps= 31 q=28.0 size=N/A time=00:03:57.28 bitrate=N/A speed=1.29x    
[hls @ 0x55ce841ecdc0] Opening '/config/data/transcodes/eef658028977f2963060fe4abe71086978.ts' for writing
frame= 5704 fps= 31 q=28.0 size=N/A time=00:03:57.88 bitrate=N/A speed=1.29x    
frame= 5720 fps= 31 q=28.0 size=N/A time=00:03:58.53 bitrate=N/A speed=1.29x    
frame= 5737 fps= 31 q=28.0 size=N/A time=00:03:59.25 bitrate=N/A speed=1.29x    
frame= 5753 fps= 31 q=28.0 size=N/A time=00:03:59.93 bitrate=N/A speed=1.29x    
frame= 5766 fps= 31 q=28.0 size=N/A time=00:04:00.46 bitrate=N/A speed=1.29x    
[hls @ 0x55ce841ecdc0] Opening '/config/data/transcodes/eef658028977f2963060fe4abe71086979.ts' for writing
frame= 5782 fps= 31 q=28.0 size=N/A time=00:04:01.14 bitrate=N/A speed=1.29x    
frame= 5800 fps= 31 q=28.0 size=N/A time=00:04:01.88 bitrate=N/A speed=1.29x    
frame= 5813 fps= 31 q=28.0 size=N/A time=00:04:02.41 bitrate=N/A speed=1.29x    
frame= 5835 fps= 31 q=28.0 size=N/A time=00:04:03.34 bitrate=N/A speed=1.29x    
[hls @ 0x55ce841ecdc0] Opening '/config/data/transcodes/eef658028977f2963060fe4abe71086980.ts' for writing
frame= 5851 fps= 31 q=28.0 size=N/A time=00:04:04.01 bitrate=N/A speed=1.29x    
frame= 5867 fps= 31 q=28.0 size=N/A time=00:04:04.66 bitrate=N/A speed=1.29x    
frame= 5886 fps= 31 q=28.0 size=N/A time=00:04:05.45 bitrate=N/A speed=1.29x    
frame= 5906 fps= 31 q=28.0 size=N/A time=00:04:06.29 bitrate=N/A speed=1.29x    
[hls @ 0x55ce841ecdc0] Opening '/config/data/transcodes/eef658028977f2963060fe4abe71086981.ts' for writing
frame= 5925 fps= 31 q=28.0 size=N/A time=00:04:07.10 bitrate=N/A speed=1.29x    
frame= 5942 fps= 31 q=28.0 size=N/A time=00:04:07.80 bitrate=N/A speed= 1.3x    
frame= 5957 fps= 31 q=28.0 size=N/A time=00:04:08.43 bitrate=N/A speed=1.29x    
frame= 5970 fps= 31 q=28.0 size=N/A time=00:04:08.96 bitrate=N/A speed=1.29x    
frame= 5982 fps= 31 q=28.0 size=N/A time=00:04:09.45 bitrate=N/A speed=1.29x    
frame= 5989 fps= 31 q=28.0 size=N/A time=00:04:09.75 bitrate=N/A speed=1.29x    
[hls @ 0x55ce841ecdc0] Opening '/config/data/transcodes/eef658028977f2963060fe4abe71086982.ts' for writing
frame= 6000 fps= 31 q=28.0 size=N/A time=00:04:10.21 bitrate=N/A speed=1.29x    
frame= 6012 fps= 31 q=28.0 size=N/A time=00:04:10.72 bitrate=N/A speed=1.29x    
frame= 6024 fps= 31 q=28.0 size=N/A time=00:04:11.21 bitrate=N/A speed=1.29x    
frame= 6036 fps= 31 q=28.0 size=N/A time=00:04:11.72 bitrate=N/A speed=1.29x    
frame= 6046 fps= 31 q=28.0 size=N/A time=00:04:12.14 bitrate=N/A speed=1.29x    
frame= 6055 fps= 31 q=28.0 size=N/A time=00:04:12.51 bitrate=N/A speed=1.28x    
[hls @ 0x55ce841ecdc0] Opening '/config/data/transcodes/eef658028977f2963060fe4abe71086983.ts' for writing
frame= 6073 fps= 31 q=28.0 size=N/A time=00:04:13.26 bitrate=N/A speed=1.28x    
frame= 6095 fps= 31 q=28.0 size=N/A time=00:04:14.19 bitrate=N/A speed=1.29x    
frame= 6107 fps= 31 q=28.0 size=N/A time=00:04:14.67 bitrate=N/A speed=1.29x    
frame= 6115 fps= 31 q=28.0 size=N/A time=00:04:15.02 bitrate=N/A speed=1.28x    
frame= 6125 fps= 31 q=28.0 size=N/A time=00:04:15.44 bitrate=N/A speed=1.28x    
frame= 6133 fps= 31 q=28.0 size=N/A time=00:04:15.76 bitrate=N/A speed=1.28x    
[hls @ 0x55ce841ecdc0] Opening '/config/data/transcodes/eef658028977f2963060fe4abe71086984.ts' for writing
frame= 6142 fps= 31 q=28.0 size=N/A time=00:04:16.13 bitrate=N/A speed=1.28x    
frame= 6150 fps= 31 q=28.0 size=N/A time=00:04:16.48 bitrate=N/A speed=1.28x    
frame= 6158 fps= 31 q=28.0 size=N/A time=00:04:16.81 bitrate=N/A speed=1.28x    
frame= 6166 fps= 31 q=28.0 size=N/A time=00:04:17.13 bitrate=N/A speed=1.27x    
frame= 6176 fps= 31 q=28.0 size=N/A time=00:04:17.55 bitrate=N/A speed=1.27x    
frame= 6186 fps= 31 q=28.0 size=N/A time=00:04:17.97 bitrate=N/A speed=1.27x    
frame= 6192 fps= 30 q=28.0 size=N/A time=00:04:18.23 bitrate=N/A speed=1.27x    
frame= 6201 fps= 30 q=28.0 size=N/A time=00:04:18.60 bitrate=N/A speed=1.27x    
[hls @ 0x55ce841ecdc0] Opening '/config/data/transcodes/eef658028977f2963060fe4abe71086985.ts' for writing


[q] command received. Exiting.

[hls @ 0x55ce841ecdc0] Opening '/config/data/transcodes/eef658028977f2963060fe4abe71086986.ts' for writing
frame= 6207 fps= 30 q=-1.0 Lsize=N/A time=00:04:18.83 bitrate=N/A speed=1.26x    
video:55527kB audio:4118kB subtitle:0kB other streams:0kB global headers:0kB muxing overhead: unknown
[libx264 @ 0x55ce8428f580] frame I:87    Avg QP:16.31  size:100475
[libx264 @ 0x55ce8428f580] frame P:1959  Avg QP:20.19  size: 16750
[libx264 @ 0x55ce8428f580] frame B:4161  Avg QP:22.29  size:  3678
[libx264 @ 0x55ce8428f580] consecutive B-frames:  7.8%  6.4%  6.1% 79.7%
[libx264 @ 0x55ce8428f580] mb I  I16..4: 41.7%  0.0% 58.3%
[libx264 @ 0x55ce8428f580] mb P  I16..4: 19.2%  0.0%  0.0%  P16..4: 25.2%  0.0%  0.0%  0.0%  0.0%    skip:55.5%
[libx264 @ 0x55ce8428f580] mb B  I16..4:  2.6%  0.0%  0.0%  B16..8:  9.1%  0.0%  0.0%  direct: 2.7%  skip:85.6%  L0:44.6% L1:49.1% BI: 6.3%
[libx264 @ 0x55ce8428f580] coded y,uvDC,uvAC intra: 26.8% 31.6% 6.5% inter: 3.5% 5.8% 0.1%
[libx264 @ 0x55ce8428f580] i16 v,h,dc,p: 38% 27% 15% 20%
[libx264 @ 0x55ce8428f580] i4 v,h,dc,ddl,ddr,vr,hd,vl,hu: 27% 21% 13%  8%  7%  6%  6%  5%  6%
[libx264 @ 0x55ce8428f580] i8c dc,h,v,p: 57% 18% 18%  7%
[libx264 @ 0x55ce8428f580] Weighted P-Frames: Y:7.8% UV:4.8%
[libx264 @ 0x55ce8428f580] kb/s:1757.06